<?xml version="1.0" standalone="no"?>
<!DOCTYPE svg PUBLIC "-//W3C//DTD SVG 20010904//EN"
 "http://www.w3.org/TR/2001/REC-SVG-20010904/DTD/svg10.dtd">
<svg version="1.0" xmlns="http://www.w3.org/2000/svg"
 width="515.000000pt" height="272.000000pt" viewBox="0 0 515.000000 272.000000"
 preserveAspectRatio="xMidYMid meet">

<g transform="translate(0.000000,272.000000) scale(0.100000,-0.100000)"
fill="#000000" stroke="none">
<path d="M980 2313 c0 -70 -8 -103 -25 -103 -7 0 -15 -14 -19 -31 -3 -16 -13
-37 -21 -46 -20 -20 -229 -90 -312 -104 -35 -6 -63 -14 -63 -18 0 -10 -156
-35 -175 -28 -8 4 -12 12 -10 20 3 7 7 47 10 87 2 41 5 105 8 142 3 60 1 70
-19 89 -37 35 -54 19 -54 -51 0 -33 -4 -60 -9 -60 -4 0 -11 -37 -14 -82 -9
-129 -31 -298 -38 -298 -4 0 -10 -21 -14 -47 -6 -48 -25 -114 -35 -123 -3 -3
-11 -27 -18 -55 -7 -27 -17 -52 -22 -55 -5 -3 -14 -27 -21 -54 -12 -47 -11
-50 11 -68 36 -29 55 -23 74 25 9 23 16 48 16 54 0 6 4 13 10 15 5 2 17 33 26
71 9 37 20 67 24 67 4 0 13 30 20 68 7 37 18 70 24 74 7 5 6 8 -4 8 -10 0 -11
3 -3 8 10 6 20 64 22 126 1 18 3 18 26 -4 22 -20 30 -22 82 -16 126 14 350 67
363 86 3 4 19 11 36 14 30 7 31 5 27 -18 -3 -15 -9 -26 -13 -26 -4 0 -10 -22
-14 -50 -4 -27 -10 -50 -15 -50 -8 0 -51 -165 -51 -196 0 -8 -6 -22 -14 -29
-7 -8 -16 -36 -20 -64 -4 -28 -13 -56 -20 -63 -7 -8 -16 -30 -20 -50 -4 -21
-13 -43 -20 -51 -7 -7 -19 -30 -27 -50 -16 -45 -6 -67 36 -82 22 -8 29 -6 41
10 8 10 14 29 14 40 0 12 8 31 18 42 9 11 26 53 37 92 10 39 22 71 26 71 4 0
11 20 15 45 3 25 9 45 13 45 4 0 13 28 20 63 15 74 29 118 30 97 2 -35 23 -90
34 -90 7 -1 27 -22 46 -48 85 -118 174 -145 266 -82 28 18 54 38 58 44 4 6 5
-7 1 -29 -4 -22 -11 -41 -15 -43 -5 -2 -9 -23 -9 -47 0 -25 -6 -50 -15 -59 -8
-8 -15 -20 -15 -27 0 -29 -44 -135 -61 -147 -11 -7 -19 -21 -19 -31 0 -10 -11
-26 -25 -35 -14 -9 -39 -32 -56 -51 -18 -19 -40 -37 -51 -41 -10 -3 -29 -16
-41 -28 -29 -29 -115 -45 -129 -24 -12 18 -5 71 21 158 10 31 8 37 -13 58 -44
45 -75 13 -92 -93 -11 -72 9 -117 69 -158 60 -42 89 -45 163 -20 49 16 154 79
154 92 0 4 18 27 41 51 22 25 47 52 55 61 8 9 14 21 14 27 0 7 4 12 8 12 22 0
69 165 71 253 1 17 7 27 16 27 10 0 15 10 15 30 0 17 5 30 10 30 6 0 10 -15
10 -33 0 -53 27 -94 88 -134 51 -34 63 -38 122 -38 64 1 153 24 248 66 23 10
49 19 56 19 7 0 25 11 40 25 28 26 65 32 83 14 17 -17 52 -1 69 34 9 17 22 37
29 43 7 7 15 31 19 53 3 23 10 41 15 41 12 0 22 43 27 108 5 75 27 116 75 137
21 10 41 16 44 14 2 -3 8 -42 14 -87 9 -70 8 -89 -6 -125 -9 -23 -19 -46 -23
-52 -22 -31 -19 -62 9 -89 47 -45 72 -34 93 42 12 44 27 73 47 93 17 16 31 33
31 37 0 7 37 45 101 105 10 9 23 17 29 17 5 0 14 9 19 19 11 20 60 41 97 41
18 0 25 -8 33 -37 6 -21 11 -57 11 -80 0 -32 4 -43 15 -43 10 0 15 -11 15 -35
0 -24 -5 -35 -15 -35 -8 0 -15 -8 -15 -17 0 -10 -5 -25 -10 -33 -7 -12 -12
-12 -22 -2 -6 6 -16 12 -20 12 -17 0 -7 -27 23 -63 36 -43 71 -49 93 -14 14
23 31 95 26 112 -1 6 -4 33 -5 60 -2 45 -12 90 -36 153 -5 12 -17 25 -26 29
-10 4 -31 17 -46 30 -43 35 -88 31 -197 -19 -14 -7 -51 -39 -82 -71 l-57 -60
-6 29 c-12 58 -20 77 -40 88 -11 6 -33 21 -48 34 -32 25 -71 28 -107 7 -14 -8
-35 -14 -47 -15 -14 0 -23 -6 -23 -15 0 -8 -3 -15 -7 -15 -5 0 -17 -20 -28
-45 -11 -25 -22 -45 -25 -45 -3 0 -16 -20 -29 -45 -13 -25 -27 -45 -31 -45 -4
0 -10 -18 -14 -40 -3 -22 -10 -40 -16 -40 -5 0 -12 -17 -16 -37 -7 -39 -29
-73 -48 -73 -6 0 -33 -11 -61 -25 -27 -13 -56 -25 -63 -25 -12 0 -53 -20 -62
-31 -9 -11 -113 -40 -161 -46 -58 -7 -109 11 -109 38 0 11 6 19 13 19 8 0 8 3
-2 9 -23 14 9 39 66 51 140 30 233 97 233 166 0 30 -7 44 -39 75 -59 55 -88
58 -164 15 -34 -19 -76 -48 -93 -63 -29 -26 -74 -107 -74 -132 0 -6 -5 -11
-10 -11 -7 0 -9 19 -4 53 26 215 19 265 -37 280 -24 6 -44 -22 -53 -75 -4 -21
-13 -44 -21 -51 -8 -8 -17 -26 -21 -41 -3 -14 -9 -26 -13 -26 -3 0 -13 -15
-20 -32 -15 -32 -68 -88 -84 -88 -5 0 -16 -7 -24 -16 -10 -9 -25 -13 -37 -10
-12 3 -29 6 -38 6 -10 0 -18 7 -18 15 0 7 -6 18 -14 22 -18 10 -46 78 -46 109
0 21 3 24 27 18 24 -6 23 -4 -14 29 -22 21 -51 37 -63 37 -21 0 -22 3 -16 38
3 20 6 45 6 55 0 9 6 17 13 17 11 0 77 187 77 217 0 6 5 13 12 15 8 3 11 26
10 72 -2 59 -5 70 -29 91 -16 13 -31 25 -35 25 -5 0 -8 -26 -8 -57z m756 -554
c-3 -17 -16 -40 -28 -50 -29 -25 -118 -69 -140 -69 -29 0 -3 42 43 70 21 14
39 28 39 31 0 10 63 49 79 49 10 0 12 -8 7 -31z"/>
<path d="M3205 2315 c-5 -2 -43 -13 -82 -25 -40 -12 -73 -26 -73 -31 0 -5 -13
-9 -29 -9 -40 0 -49 -19 -20 -41 32 -25 70 -23 159 6 41 14 92 28 113 32 44 7
43 19 -3 51 -32 21 -43 24 -65 17z"/>
<path d="M3495 2090 c-3 -5 -16 -10 -29 -10 -12 0 -33 -12 -47 -26 -19 -20
-31 -25 -56 -21 -29 5 -31 3 -38 -31 -8 -45 -43 -122 -56 -122 -5 0 -9 -7 -9
-15 0 -8 -4 -15 -8 -15 -4 0 -16 -25 -27 -55 -17 -52 -17 -56 -1 -74 22 -24
71 -45 90 -38 8 3 20 24 26 46 6 23 17 41 24 41 15 0 25 30 33 94 6 55 16 70
68 106 25 17 45 35 45 39 0 12 73 33 101 29 24 -3 24 -4 24 -111 -1 -66 -5
-111 -12 -115 -6 -4 -14 -26 -18 -49 -4 -24 -11 -43 -16 -43 -20 0 -7 -35 23
-62 17 -15 35 -28 39 -28 3 0 12 27 20 60 7 33 17 60 21 60 4 0 8 9 8 19 0 11
5 21 10 23 16 5 18 168 3 184 -7 7 -13 19 -14 26 0 7 -23 32 -52 56 -44 36
-57 42 -98 42 -26 0 -51 -4 -54 -10z"/>
<path d="M3027 1998 c-3 -18 -9 -73 -13 -122 -5 -65 -12 -95 -25 -109 -9 -10
-20 -31 -24 -45 -5 -22 -1 -32 27 -55 43 -36 60 -31 76 21 8 23 18 42 23 42
14 0 11 58 -3 63 -10 4 -10 8 1 15 8 6 14 36 16 87 4 74 2 79 -25 106 -37 37
-47 36 -53 -3z"/>
<path d="M2780 1404 c-11 -26 -20 -53 -20 -60 0 -21 -23 -68 -42 -85 -10 -9
-18 -19 -18 -23 0 -3 -12 -24 -26 -46 -28 -42 -76 -61 -109 -42 -11 6 -29 5
-54 -4 -79 -29 -229 -9 -300 40 -20 13 -63 49 -96 80 -53 50 -65 56 -102 56
-29 0 -43 -4 -43 -13 0 -26 36 -47 77 -47 31 0 47 -6 64 -25 31 -33 155 -125
170 -125 6 0 17 -7 25 -15 9 -8 27 -18 42 -21 15 -3 37 -7 50 -10 26 -5 62
-58 62 -91 0 -13 5 -23 10 -23 6 0 10 -11 10 -25 0 -14 5 -25 10 -25 6 0 10
-42 10 -105 0 -63 -4 -105 -10 -105 -5 0 -10 -9 -10 -20 0 -11 -4 -20 -9 -20
-5 0 -13 -15 -16 -33 -12 -53 -57 -147 -72 -147 -7 0 -13 -4 -13 -8 0 -4 -12
-23 -28 -41 -20 -24 -41 -36 -79 -44 l-52 -12 25 -33 c29 -36 75 -43 110 -17
10 8 26 15 34 15 8 0 31 23 50 50 19 27 42 52 50 55 15 5 20 15 56 125 10 30
23 58 28 61 13 10 13 239 -1 247 -6 4 -14 23 -18 42 -4 19 -16 54 -27 79 -10
24 -17 45 -16 46 2 0 35 6 74 13 114 18 175 62 211 149 10 24 23 43 28 43 11
0 41 70 55 127 6 27 3 35 -19 57 -15 14 -32 26 -39 26 -6 0 -20 -21 -32 -46z"/>
<path d="M4168 1025 c-20 -14 -40 -25 -45 -25 -4 0 -17 -12 -29 -27 l-22 -28
-32 33 c-18 17 -42 32 -54 31 -11 0 -15 -3 -8 -6 16 -6 17 -230 1 -235 -6 -2
-14 -36 -17 -76 -5 -71 -4 -72 31 -108 19 -20 39 -34 45 -31 5 4 12 41 15 84
3 43 11 79 16 81 6 2 11 12 11 21 0 32 38 129 57 148 36 34 102 83 112 83 6 0
11 5 11 10 0 6 12 10 26 10 26 0 54 -20 54 -39 0 -5 6 -16 14 -24 13 -13 42
-123 54 -204 2 -18 8 -33 12 -33 4 0 14 -14 21 -32 11 -28 108 -132 115 -125
5 5 -39 92 -47 95 -5 2 -13 28 -20 58 -7 30 -17 54 -23 54 -6 0 -4 5 4 10 8 5
10 10 4 10 -7 0 -20 34 -29 75 -10 41 -21 75 -24 75 -4 0 -17 17 -30 38 -13
20 -43 52 -68 70 -55 40 -103 43 -155 7z"/>
<path d="M2962 998 c-5 -7 -13 -23 -16 -35 -4 -13 -12 -23 -17 -23 -5 0 -9
-15 -9 -34 0 -27 -5 -35 -22 -40 -22 -5 -68 -64 -68 -86 0 -5 -6 -10 -14 -10
-18 0 -41 -125 -31 -172 11 -56 16 -68 28 -68 6 0 23 -12 38 -26 23 -22 34
-25 62 -20 73 14 227 159 227 214 0 7 6 20 14 27 14 15 10 65 -5 65 -5 0 -9 9
-9 20 0 97 -136 240 -178 188z m102 -116 c20 -72 20 -93 2 -137 -17 -40 -23
-48 -89 -115 -51 -51 -89 -80 -107 -80 -9 0 -8 40 3 90 2 8 7 37 12 63 6 40
13 51 39 64 17 9 43 16 59 15 15 -1 27 2 27 8 0 5 -4 10 -10 10 -5 0 -10 14
-10 30 0 17 5 30 13 30 8 0 7 4 -3 10 -10 7 -12 12 -4 18 6 4 16 17 23 30 18
34 27 27 45 -36z"/>
<path d="M3639 943 c-5 -15 -21 -37 -34 -49 -14 -13 -25 -28 -25 -35 0 -21
-44 -103 -62 -117 -10 -7 -18 -18 -18 -24 0 -16 -113 -117 -132 -118 -9 0 -18
-6 -21 -12 -8 -25 -19 1 -20 49 -1 50 6 125 18 206 5 33 12 47 24 48 13 0 13
1 1 6 -8 3 -27 17 -42 31 l-27 25 -11 -27 c-5 -15 -10 -34 -10 -42 0 -8 -4
-14 -10 -14 -5 0 -10 -25 -10 -55 0 -30 -4 -55 -10 -55 -5 0 -10 -22 -10 -50
0 -27 5 -50 10 -50 6 0 10 -13 10 -30 0 -16 5 -30 10 -30 6 0 10 -6 10 -14 0
-17 65 -76 84 -76 32 0 113 46 150 85 67 70 96 103 96 110 0 3 6 13 14 20 12
12 15 9 21 -22 8 -43 32 -93 44 -93 4 0 28 -20 53 -45 53 -52 80 -56 147 -22
30 15 48 32 54 52 9 25 7 31 -19 52 -35 27 -52 29 -61 6 -10 -29 -35 -53 -55
-53 -10 0 -18 -4 -18 -10 0 -15 -19 -12 -36 5 -18 17 -34 69 -34 107 0 14 -6
29 -12 31 -10 4 -9 8 2 16 10 7 11 11 3 11 -7 0 -13 7 -13 15 0 8 6 15 13 15
9 0 8 3 -2 9 -7 5 -9 10 -4 12 6 2 13 27 16 55 6 51 6 51 -34 77 l-40 26 -10
-26z"/>
</g>
</svg>
