<?xml version="1.0" standalone="no"?>
<!DOCTYPE svg PUBLIC "-//W3C//DTD SVG 20010904//EN"
 "http://www.w3.org/TR/2001/REC-SVG-20010904/DTD/svg10.dtd">
<svg version="1.0" xmlns="http://www.w3.org/2000/svg"
 width="306.000000pt" height="165.000000pt" viewBox="0 0 306.000000 165.000000"
 preserveAspectRatio="xMidYMid meet">

<g transform="translate(0.000000,165.000000) scale(0.100000,-0.100000)"
fill="#000000" stroke="none">
<path d="M964 1409 c-10 -11 -26 -57 -36 -104 -15 -77 -21 -87 -64 -131 -65
-64 -122 -85 -256 -92 -104 -5 -108 -6 -137 -36 l-30 -31 77 3 c177 7 269 38
338 115 l36 39 -6 -37 c-4 -21 -9 -41 -12 -46 -3 -5 -7 -20 -10 -34 -2 -13
-13 -45 -24 -70 -11 -25 -22 -58 -24 -72 -5 -27 -37 -114 -92 -253 -54 -136
-83 -224 -78 -230 13 -12 65 69 90 139 14 42 30 85 34 96 52 133 90 239 105
295 7 25 20 62 29 84 30 72 95 315 96 359 0 32 -10 34 -36 6z"/>
<path d="M477 1342 c-15 -16 -27 -38 -27 -51 0 -13 -7 -51 -16 -85 -9 -33 -18
-70 -20 -81 -7 -36 -36 -129 -57 -185 -12 -30 -23 -63 -24 -72 -2 -10 -18 -50
-37 -90 -61 -129 -86 -191 -81 -197 24 -23 119 163 187 364 11 33 25 69 31 80
5 11 14 33 18 50 20 82 60 243 64 262 8 33 -9 35 -38 5z"/>
<path d="M2309 1225 c-3 -2 -42 -9 -88 -14 -64 -7 -88 -14 -107 -32 -47 -44
-42 -44 146 -17 74 11 110 28 110 55 0 12 -50 19 -61 8z"/>
<path d="M2684 995 c-29 -14 -75 -50 -103 -80 l-52 -55 6 38 c3 20 8 47 11 60
2 12 0 22 -5 22 -12 0 -61 -58 -62 -73 -1 -26 -8 -73 -15 -97 -3 -14 -8 -36
-11 -50 -2 -14 -16 -53 -30 -88 -14 -35 -22 -66 -19 -69 15 -16 66 55 95 132
18 46 45 100 61 121 17 20 30 40 30 44 0 14 70 50 111 56 36 6 42 3 72 -28 20
-21 37 -53 43 -81 11 -45 10 -140 0 -187 -16 -68 -18 -90 -8 -90 43 0 88 158
79 272 -12 147 -94 208 -203 153z"/>
<path d="M2274 939 c-13 -15 -22 -49 -31 -113 -6 -55 -20 -108 -33 -134 -28
-53 -17 -73 20 -37 35 33 59 103 75 218 13 94 7 107 -31 66z"/>
<path d="M1560 905 c-19 -21 -23 -37 -26 -107 -1 -53 -10 -104 -23 -140 -12
-32 -21 -64 -21 -72 0 -14 -67 -76 -83 -76 -4 0 -21 -9 -36 -21 -19 -14 -50
-23 -92 -26 -86 -7 -110 11 -117 88 l-4 54 38 14 c69 24 184 150 184 201 0 43
-23 56 -71 40 -45 -15 -132 -88 -161 -135 l-18 -30 0 30 c1 17 5 62 10 100 5
39 5 73 1 78 -16 16 -60 -50 -80 -122 -25 -89 -34 -101 -54 -70 -18 27 -67
170 -67 193 0 23 -13 20 -39 -8 -20 -21 -22 -31 -16 -68 4 -24 14 -59 22 -78
8 -19 16 -39 17 -45 5 -23 28 -55 47 -66 18 -9 27 -6 60 27 35 34 38 36 34 13
-3 -13 -7 -51 -10 -84 -9 -126 -30 -218 -71 -313 -31 -71 -83 -142 -105 -142
-20 0 -39 28 -39 59 0 31 -19 35 -46 10 -27 -25 -26 -62 2 -106 33 -52 86 -21
174 98 52 70 120 214 120 255 0 21 14 17 25 -8 15 -35 53 -49 115 -45 71 5 96
16 189 85 24 17 47 32 50 32 3 0 5 -20 3 -45 -2 -25 0 -45 5 -45 25 0 75 71
92 132 10 36 24 75 30 86 14 26 14 35 1 27 -15 -10 0 105 18 133 11 17 18 20
28 11 15 -12 32 -68 40 -127 2 -20 6 -44 9 -52 3 -8 -2 -39 -9 -67 -32 -120
40 -45 83 87 75 227 129 238 193 40 24 -75 23 -90 -12 -130 -31 -37 -36 -55
-19 -66 20 -12 78 58 96 114 16 50 16 57 0 116 -22 85 -62 154 -93 162 -52 13
-130 -50 -167 -136 -9 -19 -16 -28 -16 -19 -3 45 -34 120 -57 136 -24 15 -26
15 -59 -17 l-35 -34 0 46 c0 57 -10 65 -40 33z m-242 -123 c7 -47 -63 -112
-122 -112 -25 0 -28 3 -22 26 11 41 36 74 75 94 45 24 65 22 69 -8z"/>
</g>
</svg>
