<?xml version="1.0" standalone="no"?>
<!DOCTYPE svg PUBLIC "-//W3C//DTD SVG 20010904//EN"
 "http://www.w3.org/TR/2001/REC-SVG-20010904/DTD/svg10.dtd">
<svg version="1.0" xmlns="http://www.w3.org/2000/svg"
 width="1525.000000pt" height="656.000000pt" viewBox="0 0 1525.000000 656.000000"
 preserveAspectRatio="xMidYMid meet">

<g transform="translate(0.000000,656.000000) scale(0.100000,-0.100000)"
fill="#000000" stroke="none">
<path d="M7130 6264 c-1440 -57 -2631 -255 -3725 -619 -1512 -502 -2470 -1254
-2635 -2067 -101 -496 77 -986 521 -1428 290 -289 627 -522 1089 -754 437
-220 874 -388 1410 -542 930 -268 1857 -415 3060 -486 280 -16 1273 -16 1565
0 946 53 1710 155 2465 328 1916 439 3236 1231 3573 2144 63 170 82 281 81
475 0 147 -4 185 -27 282 -194 832 -1154 1568 -2703 2073 -955 311 -2021 498
-3279 575 -232 15 -1184 27 -1395 19z m1396 -68 c1270 -79 2317 -264 3284
-581 1729 -567 2720 -1440 2677 -2355 -32 -685 -594 -1314 -1637 -1834 -668
-332 -1430 -579 -2355 -760 -649 -127 -1229 -197 -2065 -248 -276 -16 -1298
-16 -1585 0 -1054 62 -1892 184 -2740 402 -650 166 -1166 353 -1675 607 -476
236 -804 461 -1097 751 -720 712 -721 1545 -5 2259 583 580 1584 1066 2847
1382 904 226 1805 346 2960 395 196 8 1168 -5 1391 -18z"/>
<path d="M7207 6033 c-2 -5 -1 -57 4 -118 30 -404 31 -438 20 -509 -6 -39 -20
-174 -31 -301 -36 -410 -83 -756 -120 -875 -11 -36 -20 -76 -20 -90 0 -42
-142 -528 -164 -565 -7 -11 -16 -33 -20 -50 -4 -16 -15 -48 -25 -70 -10 -22
-26 -60 -36 -85 -54 -143 -181 -394 -266 -524 -169 -262 -390 -467 -634 -588
-134 -67 -208 -87 -390 -103 -38 -4 -78 -9 -87 -11 -13 -4 -18 4 -23 43 -5 46
-11 90 -35 273 -6 47 -22 150 -35 230 -13 80 -29 183 -35 229 -6 46 -20 111
-30 145 -23 75 -80 368 -80 410 0 17 10 54 23 81 13 28 33 86 46 130 12 44 33
118 47 165 36 127 71 338 72 440 1 8 3 74 6 145 13 333 -95 697 -251 846 -67
64 -104 89 -132 89 -25 0 -68 -53 -88 -106 -29 -79 -16 -409 28 -734 14 -108
26 -202 39 -305 6 -49 22 -164 35 -255 60 -403 59 -395 40 -442 -9 -24 -24
-63 -32 -88 -8 -25 -26 -67 -38 -95 -13 -27 -39 -85 -59 -128 -20 -42 -36 -79
-36 -81 0 -2 -32 -64 -71 -137 -76 -144 -118 -212 -189 -301 -25 -31 -58 -75
-75 -98 -41 -57 -168 -175 -234 -218 -62 -40 -141 -72 -223 -92 -100 -23 -343
0 -392 39 -6 4 -24 11 -40 15 -17 4 -42 16 -57 27 -15 10 -30 19 -34 19 -12 0
-97 63 -168 123 -60 52 -277 322 -277 345 0 4 -16 32 -36 62 -69 106 -181 364
-224 515 -12 44 -33 116 -46 160 -40 132 -112 518 -133 710 -41 363 -43 390
-45 581 0 113 3 166 11 176 10 12 3 24 -41 67 -48 48 -54 51 -67 35 -10 -12
-15 -54 -18 -147 -6 -224 38 -639 105 -982 24 -126 50 -250 58 -275 13 -44 30
-102 63 -217 41 -147 159 -418 227 -523 20 -30 36 -58 36 -62 0 -5 53 -79 118
-166 81 -107 158 -195 243 -277 162 -156 248 -216 409 -288 149 -67 370 -73
496 -16 22 11 45 19 51 19 46 0 279 193 338 281 16 24 43 60 60 79 77 89 207
314 305 530 24 52 52 115 63 140 l21 45 12 -55 c7 -30 20 -80 29 -110 8 -30
18 -82 21 -115 3 -33 16 -121 29 -195 13 -74 29 -175 35 -225 6 -49 16 -115
21 -145 5 -30 13 -116 16 -191 l6 -136 -63 -6 c-61 -7 -90 -13 -200 -44 -184
-51 -352 -172 -487 -353 -64 -86 -116 -193 -149 -309 -23 -82 -26 -108 -22
-190 5 -96 9 -112 68 -222 20 -39 153 -165 221 -211 47 -31 122 -43 217 -35
87 9 207 69 296 149 36 33 66 63 66 68 0 4 17 34 39 66 95 144 136 384 136
800 l0 181 130 12 c332 33 422 67 720 276 123 86 283 268 400 455 15 25 36 57
46 72 66 96 219 441 310 698 34 94 139 468 139 492 0 13 11 62 24 108 13 47
37 175 53 285 l28 200 3 -185 c4 -242 -24 -774 -43 -815 -20 -44 -75 -210 -75
-228 0 -9 -11 -51 -24 -94 -43 -139 -88 -312 -111 -430 -7 -40 -18 -80 -23
-90 -5 -10 -13 -38 -16 -63 -4 -25 -14 -65 -22 -90 -33 -106 -111 -438 -129
-554 -8 -49 -17 -130 -20 -180 l-7 -91 56 -54 c30 -30 57 -53 59 -50 2 2 19
51 37 109 17 58 47 150 67 205 19 55 43 129 53 164 11 35 23 68 28 75 5 6 19
54 32 106 13 52 27 104 33 114 13 26 29 96 93 410 54 267 64 335 86 556 11
114 44 227 86 290 9 14 27 45 39 70 13 25 34 61 48 80 13 19 41 60 62 90 90
131 231 256 363 321 38 19 198 16 235 -4 47 -26 70 -49 85 -87 7 -19 17 -40
22 -47 49 -64 55 -397 14 -718 -35 -275 -52 -388 -69 -470 -8 -38 -23 -115
-32 -170 -9 -55 -21 -125 -26 -155 -45 -272 -57 -453 -39 -585 16 -112 28
-135 108 -217 104 -108 125 -106 205 11 69 102 83 128 102 197 15 55 19 78 29
179 10 104 17 154 26 200 5 28 12 77 15 110 12 129 50 371 70 435 16 56 38
135 60 220 9 36 28 97 41 137 13 39 24 78 24 86 0 18 98 281 132 352 59 126
132 262 159 294 16 20 29 40 29 46 0 5 22 35 48 66 128 150 250 206 357 168
41 -15 51 -43 66 -183 13 -115 5 -324 -26 -691 -8 -93 -19 -240 -25 -325 -12
-180 -35 -356 -54 -420 -8 -25 -19 -72 -27 -105 -7 -33 -16 -67 -20 -75 -4 -9
-12 -52 -19 -97 -16 -122 -4 -163 73 -241 34 -34 67 -62 74 -62 29 0 42 55 57
230 3 36 8 88 11 115 3 28 8 75 10 105 15 155 79 459 126 590 105 295 324 701
475 882 22 26 52 67 67 92 45 73 161 204 232 263 68 56 106 73 161 73 27 0 32
-5 51 -52 12 -29 24 -75 27 -103 3 -27 11 -93 17 -145 8 -60 12 -314 13 -690
1 -611 -5 -744 -48 -1105 l-14 -110 54 -55 c29 -30 56 -51 60 -47 4 3 15 75
25 159 10 84 25 200 34 258 9 58 20 130 25 160 13 81 39 199 49 218 4 9 11 37
15 62 12 82 84 317 154 506 34 91 176 379 200 407 8 9 38 55 66 101 28 47 98
139 155 206 148 172 254 250 339 250 44 0 54 -12 89 -115 80 -230 99 -426 113
-1145 12 -668 26 -755 147 -881 76 -80 102 -93 169 -85 53 6 173 62 239 111
17 12 42 28 57 36 15 8 51 33 80 57 29 23 94 74 143 114 50 39 115 94 146 122
30 28 82 73 115 100 32 26 79 66 103 88 l43 40 -48 49 c-27 27 -51 49 -55 49
-7 0 -76 -58 -253 -213 -33 -29 -103 -87 -155 -129 -53 -42 -112 -90 -131
-106 -51 -42 -195 -134 -268 -171 -35 -18 -85 -35 -112 -38 -46 -5 -48 -5 -53
23 -3 16 -10 49 -16 74 -24 110 -31 264 -36 700 -2 195 -5 382 -8 415 -3 33
-8 103 -12 155 -23 369 -100 622 -229 758 -57 60 -123 102 -160 102 -45 -1
-130 -41 -193 -90 -76 -59 -254 -269 -315 -370 -28 -47 -59 -94 -69 -105 -26
-30 -174 -330 -199 -405 -12 -36 -28 -74 -34 -85 -7 -11 -17 -38 -23 -60 -27
-96 -56 -186 -59 -182 -4 4 -14 369 -15 542 0 83 -12 229 -29 352 -14 105 -59
193 -144 281 -100 104 -134 118 -217 88 -83 -29 -235 -180 -339 -336 -24 -36
-53 -76 -66 -90 -99 -111 -325 -504 -420 -734 l-34 -81 5 70 c6 74 9 116 21
315 12 192 11 245 -10 413 -11 93 -144 255 -243 298 -141 61 -313 -36 -462
-261 -31 -47 -62 -96 -69 -109 -6 -13 -23 -44 -37 -70 -30 -57 -104 -225 -134
-306 -13 -33 -31 -82 -42 -109 -10 -27 -19 -56 -19 -65 0 -8 -11 -49 -25 -91
-13 -41 -31 -102 -40 -135 -26 -96 -45 -167 -60 -215 -22 -72 -60 -294 -75
-440 -6 -52 -14 -117 -20 -145 -5 -27 -14 -104 -20 -170 -12 -131 -31 -219
-58 -269 -32 -57 -122 -186 -132 -186 -12 0 -18 23 -26 95 -16 144 1 345 57
680 11 66 24 145 29 175 4 30 13 74 19 97 26 96 87 597 96 794 6 128 -21 277
-70 382 -30 64 -54 96 -128 171 -121 123 -171 149 -287 150 -78 1 -91 -2 -150
-33 -143 -73 -295 -224 -399 -394 -12 -20 -26 -35 -30 -33 -4 3 -4 40 0 83 8
85 5 907 -4 988 -16 141 -20 243 -23 485 -3 291 -6 330 -33 400 -13 33 -97
130 -113 130 -4 0 -9 -3 -11 -7z m-2055 -828 c29 -52 38 -79 81 -230 47 -162
56 -326 37 -617 -12 -164 -39 -329 -70 -418 -10 -30 -21 -73 -25 -95 -12 -76
-21 -67 -38 37 -45 277 -116 917 -119 1083 -1 46 13 174 23 203 17 52 48 94
68 90 9 -2 28 -26 43 -53z m155 -3392 c-11 -363 -47 -536 -144 -689 -55 -89
-137 -161 -239 -214 -59 -30 -78 -35 -158 -38 -124 -6 -166 7 -212 64 -44 54
-64 139 -59 250 4 82 54 260 85 303 11 16 20 36 20 45 0 8 13 30 28 48 16 18
42 53 59 78 43 61 144 157 226 213 37 26 71 47 75 47 4 0 23 8 42 19 42 22
114 44 195 61 33 7 65 14 70 15 6 2 12 4 14 4 2 1 1 -92 -2 -206z"/>
</g>
</svg>
