<?xml version="1.0" standalone="no"?>
<!DOCTYPE svg PUBLIC "-//W3C//DTD SVG 20010904//EN"
 "http://www.w3.org/TR/2001/REC-SVG-20010904/DTD/svg10.dtd">
<svg version="1.0" xmlns="http://www.w3.org/2000/svg"
 width="520.000000pt" height="112.000000pt" viewBox="0 0 520.000000 112.000000"
 preserveAspectRatio="xMidYMid meet">

<g transform="translate(0.000000,112.000000) scale(0.100000,-0.100000)"
fill="#000000" stroke="none">
<path d="M2770 1042 c0 -5 7 -15 15 -22 8 -7 15 -18 15 -24 0 -7 15 -35 33
-63 45 -73 160 -153 239 -168 l36 -7 -26 -29 c-17 -20 -31 -27 -44 -23 -22 7
-24 -24 -7 -107 14 -70 14 -202 0 -227 -15 -28 -16 -26 28 -55 l38 -26 12 25
c14 31 14 166 1 231 -21 101 -21 103 3 103 12 0 35 15 52 33 32 35 188 168
272 232 29 22 52 42 53 45 0 13 -70 51 -82 44 -20 -12 -93 -71 -194 -156 l-90
-77 -28 18 c-15 10 -50 22 -76 25 -63 8 -91 32 -131 112 -24 47 -46 75 -76 96
-24 16 -43 25 -43 20z"/>
<path d="M280 953 c-27 -169 -49 -236 -137 -423 -30 -63 -63 -136 -73 -162
l-19 -46 34 -26 c18 -14 36 -26 38 -26 3 0 14 23 26 51 13 28 45 98 72 155 27
58 49 108 49 112 0 4 57 7 127 7 71 0 143 3 161 7 31 7 33 6 26 -15 -4 -12
-33 -56 -65 -97 -50 -65 -86 -128 -77 -135 2 -1 18 -12 35 -24 33 -23 53 -21
53 4 0 8 23 44 52 82 29 37 64 89 78 115 l26 48 30 -39 c44 -59 118 -106 165
-105 37 1 39 0 39 -28 0 -44 -53 -151 -100 -202 -55 -60 -111 -86 -184 -86
-52 0 -62 4 -99 35 -22 19 -44 35 -49 35 -21 0 18 -44 68 -77 47 -31 67 -38
120 -41 91 -6 126 3 184 49 58 46 97 100 120 169 l17 49 37 -26 c21 -14 56
-28 77 -30 44 -6 136 17 216 53 l53 25 45 -31 c25 -17 50 -28 56 -24 16 10 48
85 55 130 7 47 35 102 64 129 18 16 23 17 30 5 21 -33 23 -83 5 -117 -10 -18
-16 -35 -14 -36 22 -17 68 -47 73 -47 3 0 14 17 25 38 23 44 88 122 103 122 6
0 7 -13 3 -32 -10 -50 -26 -88 -38 -88 -11 0 63 -59 75 -60 17 0 40 66 45 129
l6 68 -46 32 c-57 39 -79 39 -128 0 l-39 -31 -39 35 c-52 47 -78 60 -106 53
-14 -4 -27 0 -35 9 -24 29 -37 16 -48 -47 -15 -88 -37 -138 -62 -138 -11 0
-37 -10 -58 -23 -78 -49 -255 -111 -297 -104 -16 3 -20 12 -20 48 0 32 4 43
14 41 83 -18 156 13 211 90 45 61 41 92 -17 129 -40 25 -55 30 -88 25 -23 -3
-54 -12 -70 -20 -39 -21 -52 -20 -82 4 -14 11 -28 20 -32 20 -3 0 -19 -25 -35
-55 -32 -61 -96 -125 -126 -125 -22 0 -34 19 -45 69 -4 19 -19 44 -33 56 -26
22 -26 23 -10 61 17 38 48 179 48 213 0 14 -67 68 -75 59 -1 -2 -10 -46 -20
-98 -20 -113 -39 -157 -60 -140 -12 10 -21 7 -45 -14 -17 -14 -47 -30 -68 -36
-52 -14 -202 -25 -202 -14 0 5 9 38 20 74 20 64 55 249 48 254 -1 1 -19 15
-39 29 l-36 27 -13 -77z m913 -373 c-26 -45 -84 -98 -116 -105 -24 -6 -26 -5
-21 11 13 37 56 84 92 104 55 29 67 26 45 -10z"/>
<path d="M2005 823 c-131 -15 -135 -18 -85 -53 26 -18 35 -20 69 -10 21 5 68
11 104 11 84 1 98 10 59 38 -29 21 -66 24 -147 14z"/>
<path d="M3986 674 c-35 -66 -88 -137 -140 -183 -22 -20 -44 -41 -51 -47 -12
-13 -70 -44 -81 -44 -11 0 4 102 22 151 36 99 36 95 -6 123 l-39 25 -24 -77
c-30 -91 -40 -157 -30 -194 10 -34 84 -88 121 -88 37 0 114 49 184 117 54 53
56 55 67 34 17 -32 118 -102 155 -108 18 -3 43 0 55 6 16 9 26 9 42 0 28 -14
35 -3 44 69 6 49 12 60 55 101 55 53 155 95 211 89 33 -3 35 -6 55 -73 12 -38
27 -89 33 -112 9 -33 22 -50 56 -73 24 -16 54 -30 66 -30 20 0 19 3 -13 33
-29 26 -40 47 -57 111 -23 88 -53 128 -130 174 -56 33 -107 33 -191 -1 -36
-15 -66 -22 -68 -17 -2 5 -19 19 -39 31 -25 16 -37 19 -42 10 -4 -6 -14 -67
-21 -134 l-13 -123 -59 -1 -59 -2 -16 37 c-13 31 -14 46 -4 92 26 116 27 112
-44 153 -6 3 -23 -19 -39 -49z"/>
<path d="M3402 670 c-23 -16 -46 -30 -51 -30 -10 0 -75 -70 -90 -98 -16 -31
-33 -114 -27 -138 7 -25 77 -74 106 -74 33 0 136 75 180 131 44 55 66 115 57
151 -7 24 -92 88 -118 88 -9 0 -35 -13 -57 -30z m92 -67 c-4 -16 -12 -37 -19
-48 -26 -41 -98 -116 -126 -131 -27 -14 -29 -13 -29 6 0 47 78 157 103 147 16
-6 41 12 50 36 11 28 28 20 21 -10z"/>
<path d="M2313 630 c-12 -5 -40 -21 -63 -35 -39 -25 -43 -25 -65 -11 -29 19
-35 20 -35 4 0 -7 -17 -48 -39 -91 l-38 -79 39 -25 c21 -14 40 -24 42 -22 2 2
15 22 29 45 36 58 178 164 220 164 29 0 33 -77 7 -144 -8 -23 -5 -28 27 -51
25 -17 41 -21 47 -15 15 15 20 153 7 179 -15 28 -110 91 -136 90 -11 0 -30 -4
-42 -9z"/>
<path d="M1964 589 c-3 -6 -9 -53 -11 -104 l-5 -94 42 -27 c30 -20 44 -24 52
-16 9 9 8 18 -2 36 -12 24 -10 120 4 156 4 10 -6 23 -29 38 -40 25 -41 26 -51
11z"/>
</g>
</svg>
