<?xml version="1.0" standalone="no"?>
<!DOCTYPE svg PUBLIC "-//W3C//DTD SVG 20010904//EN"
 "http://www.w3.org/TR/2001/REC-SVG-20010904/DTD/svg10.dtd">
<svg version="1.0" xmlns="http://www.w3.org/2000/svg"
 width="520.000000pt" height="112.000000pt" viewBox="0 0 520.000000 112.000000"
 preserveAspectRatio="xMidYMid meet">

<g transform="translate(0.000000,112.000000) scale(0.100000,-0.100000)"
fill="#000000" stroke="none">
<path d="M2020 1079 c-1149 -58 -1950 -268 -1950 -509 0 -214 632 -407 1590
-485 450 -36 1085 -47 1521 -25 1172 58 1969 265 1969 510 0 245 -797 452
-1969 510 -232 11 -929 11 -1161 -1z m969 -9 c1213 -42 2075 -236 2136 -482
15 -60 -47 -133 -165 -196 -524 -279 -2128 -408 -3450 -276 -444 44 -795 109
-1052 195 -294 98 -409 209 -338 324 172 278 1514 481 2869 435z"/>
<path d="M3290 820 c-68 -64 -113 -100 -127 -100 -23 0 -73 18 -265 95 -60 23
-108 41 -108 40 0 -7 80 -49 125 -66 48 -17 148 -55 209 -78 26 -11 27 -13 13
-29 -27 -29 -75 -164 -85 -236 l-9 -68 31 -19 31 -19 6 53 c8 69 24 123 54
190 25 54 68 99 223 235 40 35 72 67 72 71 0 8 -45 31 -58 31 -4 -1 -54 -46
-112 -100z"/>
<path d="M720 839 c0 -14 -62 -117 -87 -144 -33 -36 -118 -149 -143 -189 -23
-37 -23 -39 -5 -52 27 -20 50 -17 62 9 6 12 37 57 68 100 48 66 61 78 79 72
75 -21 139 -26 201 -16 36 6 72 14 81 18 9 3 -24 -45 -74 -108 l-91 -114 25
-13 c14 -8 32 -11 40 -8 7 3 55 58 106 122 l92 116 22 -49 c16 -38 32 -56 67
-76 52 -31 74 -33 105 -11 47 33 8 -49 -47 -99 -43 -39 -80 -53 -166 -61 -45
-5 -65 -3 -82 9 -12 8 -24 11 -27 6 -4 -5 10 -19 30 -32 33 -20 44 -21 130
-16 126 9 174 34 228 120 17 28 18 29 32 9 25 -35 95 -55 177 -50 40 3 81 9
92 15 17 10 16 12 -9 25 -23 12 -37 12 -89 1 -94 -19 -117 -17 -117 10 0 38
13 49 44 37 53 -20 102 -12 141 21 47 42 48 79 1 108 -56 35 -133 22 -190 -32
l-34 -33 -6 38 c-5 28 -13 41 -36 53 -42 22 -47 20 -70 -24 -22 -44 -73 -86
-94 -78 -8 3 -19 23 -26 44 -7 21 -24 48 -38 60 l-26 22 21 23 c19 20 83 137
83 151 0 6 -60 31 -64 26 -1 -2 -15 -29 -30 -59 -16 -30 -41 -70 -56 -89 -24
-28 -32 -32 -44 -22 -12 10 -28 8 -81 -8 -68 -21 -215 -30 -215 -12 0 4 9 20
20 34 11 14 20 28 20 31 0 4 12 24 26 46 15 22 25 42 23 44 -20 15 -55 36 -61
36 -5 0 -8 -5 -8 -11z m860 -267 c0 -16 -33 -53 -60 -67 -31 -16 -70 -20 -70
-7 0 10 48 56 75 70 23 13 55 15 55 4z"/>
<path d="M2198 819 c-27 -17 41 -32 127 -30 104 3 131 12 88 30 -29 12 -195
12 -215 0z"/>
<path d="M2282 702 c-1 -46 -16 -118 -43 -200 -12 -35 -19 -64 -18 -66 2 -1
16 -10 31 -19 l27 -17 21 68 c28 89 49 198 43 223 -3 11 -18 26 -33 34 l-28
14 0 -37z"/>
<path d="M4230 707 c0 -2 -5 -29 -10 -58 -6 -30 -11 -72 -12 -95 -1 -45 5 -43
-102 -47 -61 -2 -86 24 -86 89 0 37 -4 45 -27 57 -25 14 -27 13 -57 -32 -48
-70 -77 -101 -124 -128 -48 -28 -121 -52 -139 -46 -22 8 -14 71 16 132 l30 58
-25 12 c-38 17 -42 15 -69 -39 -32 -63 -33 -119 -2 -147 86 -79 194 -64 309
45 l46 45 29 -20 c82 -58 166 -78 214 -52 15 8 24 7 36 -3 17 -14 19 -12 66
62 12 19 41 48 64 64 35 24 52 29 105 30 48 1 69 -4 90 -19 36 -27 76 -108 84
-172 5 -39 12 -56 30 -68 33 -21 34 -20 34 26 0 61 -52 160 -103 197 -69 49
-124 72 -169 72 -56 0 -116 -17 -152 -43 l-29 -20 7 34 c5 31 3 37 -24 52 -16
10 -30 16 -30 14z"/>
<path d="M2360 653 c0 -27 -4 -53 -9 -58 -12 -14 -28 -86 -23 -108 4 -17 59
-53 69 -44 2 3 10 36 16 74 15 84 19 91 71 113 148 64 181 9 102 -170 -4 -11
3 -21 24 -33 l30 -18 21 45 c11 25 22 67 25 94 5 39 2 52 -16 75 -47 59 -128
80 -212 55 -33 -10 -44 -9 -69 6 l-29 17 0 -48z"/>
<path d="M3289 630 c-8 -5 -24 -34 -34 -64 -16 -46 -17 -60 -7 -95 23 -73 115
-109 193 -73 82 37 131 107 113 160 -13 37 -96 81 -151 82 -24 0 -43 -4 -43
-8 0 -16 44 -29 81 -25 103 13 57 -125 -58 -174 -18 -7 -42 -13 -54 -13 -20 0
-21 4 -17 65 3 46 10 73 26 94 l22 30 -22 15 c-26 18 -28 19 -49 6z"/>
<path d="M1993 621 c-18 -5 -44 -16 -57 -25 -23 -15 -27 -15 -59 4 -25 15 -48
19 -95 17 -57 -2 -62 -4 -71 -29 -5 -15 -28 -50 -50 -78 -23 -29 -41 -55 -41
-58 0 -4 13 -15 30 -24 29 -17 29 -16 60 18 16 19 30 39 30 44 0 13 59 69 91
86 41 21 48 -2 15 -51 -14 -21 -26 -46 -26 -57 0 -16 52 -58 72 -58 14 0 41
52 47 88 5 33 12 40 60 65 93 47 124 30 85 -45 -16 -30 -15 -32 7 -49 13 -10
27 -19 31 -19 3 0 16 20 28 44 24 52 19 71 -30 106 -35 25 -81 32 -127 21z"/>
</g>
</svg>
